<svg xmlns="http://www.w3.org/2000/svg" width="1400" height="760" viewBox="0 0 1400 760" role="img" aria-labelledby="title desc">
<title id="title">Stage 8：A/B 版本 P99 延迟</title><desc id="desc">候选 B 的尾延迟约为稳定版本 A 的 1.9 倍，应作为灰度门槛披露</desc>
<rect width="1400" height="760" fill="#FFFFFF"/>
<style>text{font-family:"Microsoft YaHei","Noto Sans CJK SC","SimHei",Arial,sans-serif;fill:#1F2937}.title{font-size:30px;font-weight:700}.subtitle{font-size:17px;fill:#4B5563}.axis{font-size:18px}.tick{font-size:15px;fill:#4B5563}.value{font-size:18px;font-weight:700}.note{font-size:13px;fill:#4B5563}.grid{stroke:#D1D5DB;stroke-width:1}.frame{stroke:#374151;stroke-width:1.2;fill:none}</style>
<text x="700.0" y="48" text-anchor="middle" class="title">Stage 8：A/B 版本 P99 延迟</text>
<text x="700.0" y="78" text-anchor="middle" class="subtitle">候选 B 的尾延迟约为稳定版本 A 的 1.9 倍，应作为灰度门槛披露</text>
<rect x="150" y="120" width="1160" height="510" class="frame"/>
<line x1="150" y1="630.0" x2="1310" y2="630.0" class="grid"/>
<text x="136" y="635.0" text-anchor="end" class="tick">0.0</text>
<line x1="150" y1="502.5" x2="1310" y2="502.5" class="grid"/>
<text x="136" y="507.5" text-anchor="end" class="tick">55.0</text>
<line x1="150" y1="375.0" x2="1310" y2="375.0" class="grid"/>
<text x="136" y="380.0" text-anchor="end" class="tick">110.0</text>
<line x1="150" y1="247.5" x2="1310" y2="247.5" class="grid"/>
<text x="136" y="252.5" text-anchor="end" class="tick">165.0</text>
<line x1="150" y1="120.0" x2="1310" y2="120.0" class="grid"/>
<text x="136" y="125.0" text-anchor="end" class="tick">220.0</text>
<rect x="330.0" y="401.5" width="220.0" height="228.5" rx="6" fill="#0072B2"/>
<text x="440.0" y="389.5" text-anchor="middle" class="value">98.6</text>
<text x="440.0" y="668" text-anchor="middle" class="tick">A · PTQ INT8</text>
<rect x="910.0" y="197.1" width="220.0" height="432.9" rx="6" fill="#D55E00"/>
<text x="1020.0" y="185.1" text-anchor="middle" class="value">186.7</text>
<text x="1020.0" y="668" text-anchor="middle" class="tick">B · QAT INT8</text>
<text x="730.0" y="690" text-anchor="middle" class="axis">版本</text>
<text x="34" y="102" class="axis">P99 延迟（ms）</text>
<text x="150" y="732" class="note">数据源：Stage 8 curated evidence CSV；单节点 Kaggle 运行；结果不能外推为多副本生产集群</text>
</svg>
