<svg xmlns="http://www.w3.org/2000/svg" width="1500" height="620" viewBox="0 0 1500 620" role="img" aria-labelledby="title desc">
<title id="title">深度调优：D 端方法 FID</title><desc id="desc">SN、Hinge、R1 与判别器组合；FID 越低越好</desc><rect width="1500" height="620" fill="#FFFFFF"/>
<style>text{font-family:"Microsoft YaHei","Noto Sans CJK SC","SimHei",Arial,sans-serif;fill:#1F2937}.title{font-size:28px;font-weight:600}.subtitle{font-size:16px;fill:#4B5563}.axis{font-size:16px}.tick{font-size:14px;fill:#4B5563}.value{font-size:14px;font-weight:600}.note{font-size:12px;fill:#4B5563}.grid{stroke:#D1D5DB;stroke-width:1}.frame{stroke:#374151;stroke-width:1.2;fill:none}.mark{shape-rendering:geometricPrecision}</style>
<text x="750" y="42" text-anchor="middle" class="title">深度调优：D 端方法 FID</text><text x="750" y="70" text-anchor="middle" class="subtitle">SN、Hinge、R1 与判别器组合；FID 越低越好</text><g aria-label="单系列水平柱状图"><line x1="350" y1="112" x2="350" y2="532" class="grid"/><text x="350" y="560" text-anchor="middle" class="tick">0.00</text><line x1="555" y1="112" x2="555" y2="532" class="grid"/><text x="555" y="560" text-anchor="middle" class="tick">30.48</text><line x1="760" y1="112" x2="760" y2="532" class="grid"/><text x="760" y="560" text-anchor="middle" class="tick">60.96</text><line x1="965.0000000000001" y1="112" x2="965.0000000000001" y2="532" class="grid"/><text x="965.0000000000001" y="560" text-anchor="middle" class="tick">91.45</text><line x1="1170" y1="112" x2="1170" y2="532" class="grid"/><text x="1170" y="560" text-anchor="middle" class="tick">121.93</text><line x1="1375" y1="112" x2="1375" y2="532" class="grid"/><text x="1375" y="560" text-anchor="middle" class="tick">152.41</text><rect x="350" y="112" width="1025" height="420" class="frame"/><text x="334" y="145.642" text-anchor="end" class="tick">11_D_SN</text><rect x="350" y="121.45" width="667.0858244405836" height="33.6" fill="#E69F00" class="mark"><title>11_D_SN：99.19</title></rect><text x="1027.0858244405836" y="145.642" class="value">99.19</text><text x="334" y="198.142" text-anchor="end" class="tick">12_D_Hinge</text><rect x="350" y="173.95" width="868.6440677966102" height="33.6" fill="#E69F00" class="mark"><title>12_D_Hinge：129.16</title></rect><text x="1228.6440677966102" y="198.142" class="value">129.16</text><text x="334" y="250.642" text-anchor="end" class="tick">13_D_SN_Hinge</text><rect x="350" y="226.45" width="647.3133441113637" height="33.6" fill="#E69F00" class="mark"><title>13_D_SN_Hinge：96.25</title></rect><text x="1007.3133441113637" y="250.642" class="value">96.25</text><text x="334" y="303.142" text-anchor="end" class="tick">14_D_SN_Hinge_SA</text><rect x="350" y="278.95" width="696.3410249276944" height="33.6" fill="#E69F00" class="mark"><title>14_D_SN_Hinge_SA：103.54</title></rect><text x="1056.3410249276944" y="303.142" class="value">103.54</text><text x="334" y="355.642" text-anchor="end" class="tick">15_D_SN_Hinge_G_SE_1layer</text><rect x="350" y="331.45" width="680.0657179900375" height="33.6" fill="#E69F00" class="mark"><title>15_D_SN_Hinge_G_SENet_1layer：101.12</title></rect><text x="1040.0657179900375" y="355.642" class="value">101.12</text><text x="334" y="408.142" text-anchor="end" class="tick">16_D_SE_SN_Hinge</text><rect x="350" y="383.95" width="663.2523843767552" height="33.6" fill="#E69F00" class="mark"><title>16_D_SENet_SN_Hinge：98.62</title></rect><text x="1023.2523843767552" y="408.142" class="value">98.62</text><text x="334" y="460.642" text-anchor="end" class="tick">17_D_FFT_SN_Hinge</text><rect x="350" y="436.45" width="731.7835321844932" height="33.6" fill="#E69F00" class="mark"><title>17_D_FFT_SN_Hinge：108.81</title></rect><text x="1091.7835321844932" y="460.642" class="value">108.81</text><text x="334" y="513.1419999999999" text-anchor="end" class="tick">19_D_SN_Hinge_R1</text><rect x="350" y="488.95" width="604.7419834025333" height="33.6" fill="#E69F00" class="mark"><title>19_D_SN_Hinge_R1：89.92</title></rect><text x="964.7419834025333" y="513.1419999999999" class="value">89.92</text><text x="1375" y="592" text-anchor="end" class="axis">FID（legacy）</text></g><text x="40" y="600" class="note">数据源：深度调优结果/*_D_*/metrics.json；说明：历史训练阶段的 SN 不代表当前部署图包含 SN</text></svg>