<svg xmlns="http://www.w3.org/2000/svg" width="1500" height="760" viewBox="0 0 1500 760" role="img" aria-labelledby="title desc">
<title id="title">CLIP 正则强度与 FID</title><desc id="desc">C0–C4 同一组 λ_clip 消融；FID 越低越好</desc><rect width="1500" height="760" fill="#FFFFFF"/>
<style>text{font-family:"Microsoft YaHei","Noto Sans CJK SC","SimHei",Arial,sans-serif;fill:#1F2937}.title{font-size:28px;font-weight:600}.subtitle{font-size:16px;fill:#4B5563}.axis{font-size:16px}.tick{font-size:14px;fill:#4B5563}.value{font-size:14px;font-weight:600}.note{font-size:12px;fill:#4B5563}.grid{stroke:#D1D5DB;stroke-width:1}.frame{stroke:#374151;stroke-width:1.2;fill:none}.mark{shape-rendering:geometricPrecision}</style>
<text x="750" y="42" text-anchor="middle" class="title">CLIP 正则强度与 FID</text><text x="750" y="70" text-anchor="middle" class="subtitle">C0–C4 同一组 λ_clip 消融；FID 越低越好</text><g aria-label="单系列折线图"><line x1="115" y1="652" x2="1410" y2="652" class="grid"/><text x="101" y="657" text-anchor="end" class="tick">33.38</text><line x1="115" y1="544.0000000000018" x2="1410" y2="544.0000000000018" class="grid"/><text x="101" y="549.0000000000018" text-anchor="end" class="tick">33.47</text><line x1="115" y1="436.0000000000035" x2="1410" y2="436.0000000000035" class="grid"/><text x="101" y="441.0000000000035" text-anchor="end" class="tick">33.55</text><line x1="115" y1="327.9999999999965" x2="1410" y2="327.9999999999965" class="grid"/><text x="101" y="332.9999999999965" text-anchor="end" class="tick">33.64</text><line x1="115" y1="219.99999999999824" x2="1410" y2="219.99999999999824" class="grid"/><text x="101" y="224.99999999999824" text-anchor="end" class="tick">33.73</text><line x1="115" y1="112" x2="1410" y2="112" class="grid"/><text x="101" y="117" text-anchor="end" class="tick">33.81</text><line x1="204.3103448275862" y1="112" x2="204.3103448275862" y2="652" class="grid"/><text x="204.3103448275862" y="680" text-anchor="middle" class="tick">0.000</text><line x1="427.5862068965517" y1="112" x2="427.5862068965517" y2="652" class="grid"/><text x="427.5862068965517" y="680" text-anchor="middle" class="tick">0.020</text><line x1="650.8620689655172" y1="112" x2="650.8620689655172" y2="652" class="grid"/><text x="650.8620689655172" y="680" text-anchor="middle" class="tick">0.040</text><line x1="874.1379310344827" y1="112" x2="874.1379310344827" y2="652" class="grid"/><text x="874.1379310344827" y="680" text-anchor="middle" class="tick">0.060</text><line x1="1097.413793103448" y1="112" x2="1097.413793103448" y2="652" class="grid"/><text x="1097.413793103448" y="680" text-anchor="middle" class="tick">0.080</text><line x1="1320.6896551724137" y1="112" x2="1320.6896551724137" y2="652" class="grid"/><text x="1320.6896551724137" y="680" text-anchor="middle" class="tick">0.100</text><rect x="115" y="112" width="1295" height="540" class="frame"/><polyline points="204.3103448275862,149.24137931034386 315.94827586206895,614.758620689656 483.405172413793,293.8087660257173 762.4999999999999,539.4156581469016 1320.6896551724137,350.63796469897494" fill="none" stroke="#0072B2" stroke-width="3" class="mark"/><circle cx="204.3103448275862" cy="149.24137931034386" r="4" fill="#0072B2" class="mark"><title>0.000：33.78</title></circle><circle cx="315.94827586206895" cy="614.758620689656" r="4" fill="#0072B2" class="mark"><title>0.010：33.41</title></circle><circle cx="483.405172413793" cy="293.8087660257173" r="4" fill="#0072B2" class="mark"><title>0.025：33.67</title></circle><circle cx="762.4999999999999" cy="539.4156581469016" r="4" fill="#0072B2" class="mark"><title>0.050：33.47</title></circle><circle cx="1320.6896551724137" cy="350.63796469897494" r="4" fill="#0072B2" class="mark"><title>0.100：33.62</title></circle><text x="1332.6896551724137" y="338.63796469897494" class="value">33.62</text><text x="1410" y="714" text-anchor="end" class="axis">λ_clip</text><text x="22" y="100" class="axis">FID（legacy）</text></g><text x="40" y="740" class="note">数据源：CLIP实验结果/C0–C4/final_metrics.json + config*.json；说明：E0 formal eval 未纳入该 λ 曲线；FID 仍为 legacy 口径</text></svg>