<svg xmlns="http://www.w3.org/2000/svg" width="1500" height="600" viewBox="0 0 1500 600" role="img" aria-labelledby="title desc">
<title id="title">PTQ 质量基线：FID</title><desc id="desc">FP32、FP16、全 INT8；FID 越低越好</desc><rect width="1500" height="600" fill="#FFFFFF"/>
<style>text{font-family:"Microsoft YaHei","Noto Sans CJK SC","SimHei",Arial,sans-serif;fill:#1F2937}.title{font-size:28px;font-weight:600}.subtitle{font-size:16px;fill:#4B5563}.axis{font-size:16px}.tick{font-size:14px;fill:#4B5563}.value{font-size:14px;font-weight:600}.note{font-size:12px;fill:#4B5563}.grid{stroke:#D1D5DB;stroke-width:1}.frame{stroke:#374151;stroke-width:1.2;fill:none}.mark{shape-rendering:geometricPrecision}</style>
<text x="750" y="42" text-anchor="middle" class="title">PTQ 质量基线：FID</text><text x="750" y="70" text-anchor="middle" class="subtitle">FP32、FP16、全 INT8；FID 越低越好</text><g aria-label="单系列水平柱状图"><line x1="350" y1="112" x2="350" y2="512" class="grid"/><text x="350" y="540" text-anchor="middle" class="tick">0.00</text><line x1="555" y1="112" x2="555" y2="512" class="grid"/><text x="555" y="540" text-anchor="middle" class="tick">8.34</text><line x1="760" y1="112" x2="760" y2="512" class="grid"/><text x="760" y="540" text-anchor="middle" class="tick">16.67</text><line x1="965" y1="112" x2="965" y2="512" class="grid"/><text x="965" y="540" text-anchor="middle" class="tick">25.01</text><line x1="1170" y1="112" x2="1170" y2="512" class="grid"/><text x="1170" y="540" text-anchor="middle" class="tick">33.34</text><line x1="1375" y1="112" x2="1375" y2="512" class="grid"/><text x="1375" y="540" text-anchor="middle" class="tick">41.68</text><rect x="350" y="112" width="1025" height="400" class="frame"/><text x="334" y="197.44" text-anchor="end" class="tick">FP32</text><rect x="350" y="136" width="737.5911350446331" height="85.33333333333334" fill="#D55E00" class="mark"><title>FP32：29.99</title></rect><text x="1097.5911350446331" y="197.44" class="value">29.99</text><text x="334" y="330.77333333333337" text-anchor="end" class="tick">FP16</text><rect x="350" y="269.33333333333337" width="737.6655744181885" height="85.33333333333334" fill="#D55E00" class="mark"><title>FP16：29.99</title></rect><text x="1097.6655744181885" y="330.77333333333337" class="value">29.99</text><text x="334" y="464.1066666666667" text-anchor="end" class="tick">INT8</text><rect x="350" y="402.6666666666667" width="868.6440677966102" height="85.33333333333334" fill="#D55E00" class="mark"><title>INT8：35.32</title></rect><text x="1228.6440677966102" y="464.1066666666667" class="value">35.32</text><text x="1375" y="572" text-anchor="end" class="axis">Standard FID</text></g><text x="40" y="580" class="note">数据源：Deployment_Optimization_Results/03_Quantization/03E_Report/fp32_fp16_int8_metrics.csv；说明：部署阶段 Standard FID；与历史 legacy FID 分开</text></svg>