<svg xmlns="http://www.w3.org/2000/svg" width="1500" height="760" viewBox="0 0 1500 760" role="img" aria-labelledby="title desc">
<title id="title">BN 融合图：批量与平均延迟</title><desc id="desc">CPUExecutionProvider；只展示该图对应的单一图结构</desc><rect width="1500" height="760" fill="#FFFFFF"/>
<style>text{font-family:"Microsoft YaHei","Noto Sans CJK SC","SimHei",Arial,sans-serif;fill:#1F2937}.title{font-size:28px;font-weight:600}.subtitle{font-size:16px;fill:#4B5563}.axis{font-size:16px}.tick{font-size:14px;fill:#4B5563}.value{font-size:14px;font-weight:600}.note{font-size:12px;fill:#4B5563}.grid{stroke:#D1D5DB;stroke-width:1}.frame{stroke:#374151;stroke-width:1.2;fill:none}.mark{shape-rendering:geometricPrecision}</style>
<text x="750" y="42" text-anchor="middle" class="title">BN 融合图：批量与平均延迟</text><text x="750" y="70" text-anchor="middle" class="subtitle">CPUExecutionProvider；只展示该图对应的单一图结构</text><g aria-label="单系列折线图"><line x1="115" y1="652" x2="1410" y2="652" class="grid"/><text x="101" y="657" text-anchor="end" class="tick">-0.26 ms</text><line x1="115" y1="544" x2="1410" y2="544" class="grid"/><text x="101" y="549" text-anchor="end" class="tick">11.00 ms</text><line x1="115" y1="436" x2="1410" y2="436" class="grid"/><text x="101" y="441" text-anchor="end" class="tick">22.26 ms</text><line x1="115" y1="328" x2="1410" y2="328" class="grid"/><text x="101" y="333" text-anchor="end" class="tick">33.51 ms</text><line x1="115" y1="220.00000000000006" x2="1410" y2="220.00000000000006" class="grid"/><text x="101" y="225.00000000000006" text-anchor="end" class="tick">44.77 ms</text><line x1="115" y1="112.00000000000011" x2="1410" y2="112.00000000000011" class="grid"/><text x="101" y="117.00000000000011" text-anchor="end" class="tick">56.03 ms</text><line x1="204.31034482758622" y1="112" x2="204.31034482758622" y2="652" class="grid"/><text x="204.31034482758622" y="680" text-anchor="middle" class="tick">1</text><line x1="427.5862068965518" y1="112" x2="427.5862068965518" y2="652" class="grid"/><text x="427.5862068965518" y="680" text-anchor="middle" class="tick">4</text><line x1="650.8620689655173" y1="112" x2="650.8620689655173" y2="652" class="grid"/><text x="650.8620689655173" y="680" text-anchor="middle" class="tick">7</text><line x1="874.1379310344828" y1="112" x2="874.1379310344828" y2="652" class="grid"/><text x="874.1379310344828" y="680" text-anchor="middle" class="tick">10</text><line x1="1097.4137931034484" y1="112" x2="1097.4137931034484" y2="652" class="grid"/><text x="1097.4137931034484" y="680" text-anchor="middle" class="tick">13</text><line x1="1320.689655172414" y1="112" x2="1320.689655172414" y2="652" class="grid"/><text x="1320.689655172414" y="680" text-anchor="middle" class="tick">16</text><rect x="115" y="112" width="1295" height="540" class="frame"/><polyline points="204.31034482758622,614.7586206896551 427.5862068965518,516.8726366134537 725.2873563218391,393.77321437632617 1320.689655172414,149.24137931034483" fill="none" stroke="#0072B2" stroke-width="3" class="mark"/><circle cx="204.31034482758622" cy="614.7586206896551" r="4" fill="#0072B2" class="mark"><title>1：3.62 ms</title></circle><circle cx="427.5862068965518" cy="516.8726366134537" r="4" fill="#0072B2" class="mark"><title>4：13.83 ms</title></circle><circle cx="725.2873563218391" cy="393.77321437632617" r="4" fill="#0072B2" class="mark"><title>8：26.66 ms</title></circle><circle cx="1320.689655172414" cy="149.24137931034483" r="4" fill="#0072B2" class="mark"><title>16：52.15 ms</title></circle><text x="1332.689655172414" y="137.24137931034483" class="value">52.15 ms</text><text x="1410" y="714" text-anchor="end" class="axis">Batch size</text><text x="22" y="100" class="axis">平均延迟（ms）</text></g><text x="40" y="740" class="note">数据源：Deployment_Optimization_Results/01_ONNX_Fusion/01C_BN_Fold/manual_bn_latency_summary.csv；说明：raw 与 manual_bn_fused 已拆成两张图，避免双系列混读</text></svg>