<svg xmlns="http://www.w3.org/2000/svg" width="1500" height="600" viewBox="0 0 1500 600" role="img" aria-labelledby="title desc">
<title id="title">Soak Test：阶段 RPS</title><desc id="desc">06D 稳态 soak；warmup 与 steady 分开比较</desc><rect width="1500" height="600" fill="#FFFFFF"/>
<style>text{font-family:"Microsoft YaHei","Noto Sans CJK SC","SimHei",Arial,sans-serif;fill:#1F2937}.title{font-size:28px;font-weight:600}.subtitle{font-size:16px;fill:#4B5563}.axis{font-size:16px}.tick{font-size:14px;fill:#4B5563}.value{font-size:14px;font-weight:600}.note{font-size:12px;fill:#4B5563}.grid{stroke:#D1D5DB;stroke-width:1}.frame{stroke:#374151;stroke-width:1.2;fill:none}.mark{shape-rendering:geometricPrecision}</style>
<text x="750" y="42" text-anchor="middle" class="title">Soak Test：阶段 RPS</text><text x="750" y="70" text-anchor="middle" class="subtitle">06D 稳态 soak；warmup 与 steady 分开比较</text><g aria-label="单系列水平柱状图"><line x1="350" y1="112" x2="350" y2="512" class="grid"/><text x="350" y="540" text-anchor="middle" class="tick">0.0</text><line x1="555" y1="112" x2="555" y2="512" class="grid"/><text x="555" y="540" text-anchor="middle" class="tick">70.4</text><line x1="760" y1="112" x2="760" y2="512" class="grid"/><text x="760" y="540" text-anchor="middle" class="tick">140.8</text><line x1="965" y1="112" x2="965" y2="512" class="grid"/><text x="965" y="540" text-anchor="middle" class="tick">211.2</text><line x1="1170" y1="112" x2="1170" y2="512" class="grid"/><text x="1170" y="540" text-anchor="middle" class="tick">281.7</text><line x1="1375" y1="112" x2="1375" y2="512" class="grid"/><text x="1375" y="540" text-anchor="middle" class="tick">352.1</text><rect x="350" y="112" width="1025" height="400" class="frame"/><text x="334" y="240.16" text-anchor="end" class="tick">warmup</text><rect x="350" y="148" width="868.6440677966102" height="128" fill="#009E73" class="mark"><title>warmup：298.4</title></rect><text x="1228.6440677966102" y="240.16" class="value">298.4</text><text x="334" y="440.15999999999997" text-anchor="end" class="tick">steady</text><rect x="350" y="348" width="835.0430968637379" height="128" fill="#009E73" class="mark"><title>steady：286.8</title></rect><text x="1195.043096863738" y="440.15999999999997" class="value">286.8</text><text x="1375" y="572" text-anchor="end" class="axis">RPS（requests/s）</text></g><text x="40" y="580" class="note">数据源：Deployment_Optimization_Results/06_Service_Stress/06D/task3_soak_summary.csv；说明：无失败请求；steady 阶段用于长时间稳定性</text></svg>