<svg xmlns="http://www.w3.org/2000/svg" width="1500" height="760" viewBox="0 0 1500 760" role="img" aria-labelledby="title desc">
<title id="title">服务压测：并发与 RPS</title><desc id="desc">当前 staged run 阶梯式加压；RPS 是服务吞吐表现</desc><rect width="1500" height="760" fill="#FFFFFF"/>
<style>text{font-family:"Microsoft YaHei","Noto Sans CJK SC","SimHei",Arial,sans-serif;fill:#1F2937}.title{font-size:28px;font-weight:600}.subtitle{font-size:16px;fill:#4B5563}.axis{font-size:16px}.tick{font-size:14px;fill:#4B5563}.value{font-size:14px;font-weight:600}.note{font-size:12px;fill:#4B5563}.grid{stroke:#D1D5DB;stroke-width:1}.frame{stroke:#374151;stroke-width:1.2;fill:none}.mark{shape-rendering:geometricPrecision}</style>
<text x="750" y="42" text-anchor="middle" class="title">服务压测：并发与 RPS</text><text x="750" y="70" text-anchor="middle" class="subtitle">当前 staged run 阶梯式加压；RPS 是服务吞吐表现</text><g aria-label="单系列折线图"><line x1="115" y1="652" x2="1410" y2="652" class="grid"/><text x="101" y="657" text-anchor="end" class="tick">242</text><line x1="115" y1="543.9999999999999" x2="1410" y2="543.9999999999999" class="grid"/><text x="101" y="548.9999999999999" text-anchor="end" class="tick">263</text><line x1="115" y1="436.00000000000006" x2="1410" y2="436.00000000000006" class="grid"/><text x="101" y="441.00000000000006" text-anchor="end" class="tick">285</text><line x1="115" y1="327.99999999999994" x2="1410" y2="327.99999999999994" class="grid"/><text x="101" y="332.99999999999994" text-anchor="end" class="tick">307</text><line x1="115" y1="219.99999999999983" x2="1410" y2="219.99999999999983" class="grid"/><text x="101" y="224.99999999999983" text-anchor="end" class="tick">328</text><line x1="115" y1="112" x2="1410" y2="112" class="grid"/><text x="101" y="117" text-anchor="end" class="tick">350</text><line x1="204.31034482758622" y1="112" x2="204.31034482758622" y2="652" class="grid"/><text x="204.31034482758622" y="680" text-anchor="middle" class="tick">1</text><line x1="427.5862068965518" y1="112" x2="427.5862068965518" y2="652" class="grid"/><text x="427.5862068965518" y="680" text-anchor="middle" class="tick">26</text><line x1="650.8620689655172" y1="112" x2="650.8620689655172" y2="652" class="grid"/><text x="650.8620689655172" y="680" text-anchor="middle" class="tick">52</text><line x1="874.1379310344828" y1="112" x2="874.1379310344828" y2="652" class="grid"/><text x="874.1379310344828" y="680" text-anchor="middle" class="tick">77</text><line x1="1097.4137931034484" y1="112" x2="1097.4137931034484" y2="652" class="grid"/><text x="1097.4137931034484" y="680" text-anchor="middle" class="tick">103</text><line x1="1320.6896551724137" y1="112" x2="1320.6896551724137" y2="652" class="grid"/><text x="1320.6896551724137" y="680" text-anchor="middle" class="tick">128</text><rect x="115" y="112" width="1295" height="540" class="frame"/><polyline points="204.31034482758622,614.7586206896551 213.1007330980179,253.8960344660727 230.68150963888135,222.42505264352235 265.8430627206082,174.12482938826713 336.1661688840619,157.8962747407868 476.8123812109693,197.39143086929369 617.4585935378767,149.2413793103447 758.1048058647841,162.6316888976396 898.7510181916915,170.84608068558362 1039.397230518599,162.17616808551105 1320.6896551724137,184.82205988847244" fill="none" stroke="#009E73" stroke-width="3" class="mark"/><circle cx="204.31034482758622" cy="614.7586206896551" r="4" fill="#009E73" class="mark"><title>1：249</title></circle><circle cx="213.1007330980179" cy="253.8960344660727" r="4" fill="#009E73" class="mark"><title>2：321</title></circle><circle cx="230.68150963888135" cy="222.42505264352235" r="4" fill="#009E73" class="mark"><title>4：328</title></circle><circle cx="265.8430627206082" cy="174.12482938826713" r="4" fill="#009E73" class="mark"><title>8：337</title></circle><circle cx="336.1661688840619" cy="157.8962747407868" r="4" fill="#009E73" class="mark"><title>16：340</title></circle><circle cx="476.8123812109693" cy="197.39143086929369" r="4" fill="#009E73" class="mark"><title>32：333</title></circle><circle cx="617.4585935378767" cy="149.2413793103447" r="4" fill="#009E73" class="mark"><title>48：342</title></circle><circle cx="758.1048058647841" cy="162.6316888976396" r="4" fill="#009E73" class="mark"><title>64：340</title></circle><circle cx="898.7510181916915" cy="170.84608068558362" r="4" fill="#009E73" class="mark"><title>80：338</title></circle><circle cx="1039.397230518599" cy="162.17616808551105" r="4" fill="#009E73" class="mark"><title>96：340</title></circle><circle cx="1320.6896551724137" cy="184.82205988847244" r="4" fill="#009E73" class="mark"><title>128：335</title></circle><text x="1332.6896551724137" y="172.82205988847244" class="value">335</text><text x="1410" y="714" text-anchor="end" class="axis">并发数</text><text x="22" y="100" class="axis">RPS（requests/s）</text></g><text x="40" y="740" class="note">数据源：Deployment_Optimization_Results/06_Service_Stress/06BC/Run_20260819_014504.zip::stage_results.csv；说明：只展示当前 staged run 的服务吞吐量</text></svg>