<svg xmlns="http://www.w3.org/2000/svg" width="1500" height="760" viewBox="0 0 1500 760" role="img" aria-labelledby="title desc">
<title id="title">服务压测：并发与 SM 利用率</title><desc id="desc">06D 监控采样峰值；只展示 SM 指标</desc><rect width="1500" height="760" fill="#FFFFFF"/>
<style>text{font-family:"Microsoft YaHei","Noto Sans CJK SC","SimHei",Arial,sans-serif;fill:#1F2937}.title{font-size:28px;font-weight:600}.subtitle{font-size:16px;fill:#4B5563}.axis{font-size:16px}.tick{font-size:14px;fill:#4B5563}.value{font-size:14px;font-weight:600}.note{font-size:12px;fill:#4B5563}.grid{stroke:#D1D5DB;stroke-width:1}.frame{stroke:#374151;stroke-width:1.2;fill:none}.mark{shape-rendering:geometricPrecision}</style>
<text x="750" y="42" text-anchor="middle" class="title">服务压测：并发与 SM 利用率</text><text x="750" y="70" text-anchor="middle" class="subtitle">06D 监控采样峰值；只展示 SM 指标</text><g aria-label="单系列折线图"><line x1="115" y1="652" x2="1410" y2="652" class="grid"/><text x="101" y="657" text-anchor="end" class="tick">9%</text><line x1="115" y1="544" x2="1410" y2="544" class="grid"/><text x="101" y="549" text-anchor="end" class="tick">10%</text><line x1="115" y1="436" x2="1410" y2="436" class="grid"/><text x="101" y="441" text-anchor="end" class="tick">11%</text><line x1="115" y1="328" x2="1410" y2="328" class="grid"/><text x="101" y="333" text-anchor="end" class="tick">12%</text><line x1="115" y1="220" x2="1410" y2="220" class="grid"/><text x="101" y="225" text-anchor="end" class="tick">13%</text><line x1="115" y1="112" x2="1410" y2="112" class="grid"/><text x="101" y="117" text-anchor="end" class="tick">14%</text><line x1="204.31034482758622" y1="112" x2="204.31034482758622" y2="652" class="grid"/><text x="204.31034482758622" y="680" text-anchor="middle" class="tick">1</text><line x1="427.5862068965518" y1="112" x2="427.5862068965518" y2="652" class="grid"/><text x="427.5862068965518" y="680" text-anchor="middle" class="tick">26</text><line x1="650.8620689655172" y1="112" x2="650.8620689655172" y2="652" class="grid"/><text x="650.8620689655172" y="680" text-anchor="middle" class="tick">52</text><line x1="874.1379310344828" y1="112" x2="874.1379310344828" y2="652" class="grid"/><text x="874.1379310344828" y="680" text-anchor="middle" class="tick">77</text><line x1="1097.4137931034484" y1="112" x2="1097.4137931034484" y2="652" class="grid"/><text x="1097.4137931034484" y="680" text-anchor="middle" class="tick">103</text><line x1="1320.6896551724137" y1="112" x2="1320.6896551724137" y2="652" class="grid"/><text x="1320.6896551724137" y="680" text-anchor="middle" class="tick">128</text><rect x="115" y="112" width="1295" height="540" class="frame"/><polyline points="204.31034482758622,614.7586206896551 213.1007330980179,335.448275862069 230.68150963888135,335.448275862069 265.8430627206082,242.34482758620692 336.1661688840619,242.34482758620692 476.8123812109693,242.34482758620692 617.4585935378767,242.34482758620692 758.1048058647841,149.24137931034483 898.7510181916915,149.24137931034483 1039.397230518599,335.448275862069 1320.6896551724137,149.24137931034483" fill="none" stroke="#E69F00" stroke-width="3" class="mark"/><circle cx="204.31034482758622" cy="614.7586206896551" r="4" fill="#E69F00" class="mark"><title>1：9%</title></circle><circle cx="213.1007330980179" cy="335.448275862069" r="4" fill="#E69F00" class="mark"><title>2：12%</title></circle><circle cx="230.68150963888135" cy="335.448275862069" r="4" fill="#E69F00" class="mark"><title>4：12%</title></circle><circle cx="265.8430627206082" cy="242.34482758620692" r="4" fill="#E69F00" class="mark"><title>8：13%</title></circle><circle cx="336.1661688840619" cy="242.34482758620692" r="4" fill="#E69F00" class="mark"><title>16：13%</title></circle><circle cx="476.8123812109693" cy="242.34482758620692" r="4" fill="#E69F00" class="mark"><title>32：13%</title></circle><circle cx="617.4585935378767" cy="242.34482758620692" r="4" fill="#E69F00" class="mark"><title>48：13%</title></circle><circle cx="758.1048058647841" cy="149.24137931034483" r="4" fill="#E69F00" class="mark"><title>64：14%</title></circle><circle cx="898.7510181916915" cy="149.24137931034483" r="4" fill="#E69F00" class="mark"><title>80：14%</title></circle><circle cx="1039.397230518599" cy="335.448275862069" r="4" fill="#E69F00" class="mark"><title>96：12%</title></circle><circle cx="1320.6896551724137" cy="149.24137931034483" r="4" fill="#E69F00" class="mark"><title>128：14%</title></circle><text x="1332.6896551724137" y="137.24137931034483" class="value">14%</text><text x="1410" y="714" text-anchor="end" class="axis">并发数</text><text x="22" y="100" class="axis">SM 利用率峰值（%）</text></g><text x="40" y="740" class="note">数据源：Deployment_Optimization_Results/06_Service_Stress/06D/task3_stage_summary.csv；说明：采样值是峰值，不等于整个阶段平均利用率</text></svg>