<svg xmlns="http://www.w3.org/2000/svg" width="1500" height="760" viewBox="0 0 1500 760" role="img" aria-labelledby="title desc">
<title id="title">CLIP 正则强度与 MMD²</title><desc id="desc">C0–C4 同一组 λ_clip 消融；MMD² 越低表示特征分布差异越小</desc><rect width="1500" height="760" fill="#FFFFFF"/>
<style>text{font-family:"Microsoft YaHei","Noto Sans CJK SC","SimHei",Arial,sans-serif;fill:#1F2937}.title{font-size:28px;font-weight:600}.subtitle{font-size:16px;fill:#4B5563}.axis{font-size:16px}.tick{font-size:14px;fill:#4B5563}.value{font-size:14px;font-weight:600}.note{font-size:12px;fill:#4B5563}.grid{stroke:#D1D5DB;stroke-width:1}.frame{stroke:#374151;stroke-width:1.2;fill:none}.mark{shape-rendering:geometricPrecision}</style>
<text x="750" y="42" text-anchor="middle" class="title">CLIP 正则强度与 MMD²</text><text x="750" y="70" text-anchor="middle" class="subtitle">C0–C4 同一组 λ_clip 消融；MMD² 越低表示特征分布差异越小</text><g aria-label="单系列折线图"><line x1="115" y1="652" x2="1410" y2="652" class="grid"/><text x="101" y="657" text-anchor="end" class="tick">0.0408</text><line x1="115" y1="543.9999999999997" x2="1410" y2="543.9999999999997" class="grid"/><text x="101" y="548.9999999999997" text-anchor="end" class="tick">0.0413</text><line x1="115" y1="435.9999999999993" x2="1410" y2="435.9999999999993" class="grid"/><text x="101" y="440.9999999999993" text-anchor="end" class="tick">0.0417</text><line x1="115" y1="328.00000000000074" x2="1410" y2="328.00000000000074" class="grid"/><text x="101" y="333.00000000000074" text-anchor="end" class="tick">0.0421</text><line x1="115" y1="220.00000000000034" x2="1410" y2="220.00000000000034" class="grid"/><text x="101" y="225.00000000000034" text-anchor="end" class="tick">0.0426</text><line x1="115" y1="112" x2="1410" y2="112" class="grid"/><text x="101" y="117" text-anchor="end" class="tick">0.0430</text><line x1="204.3103448275862" y1="112" x2="204.3103448275862" y2="652" class="grid"/><text x="204.3103448275862" y="680" text-anchor="middle" class="tick">0.000</text><line x1="427.5862068965517" y1="112" x2="427.5862068965517" y2="652" class="grid"/><text x="427.5862068965517" y="680" text-anchor="middle" class="tick">0.020</text><line x1="650.8620689655172" y1="112" x2="650.8620689655172" y2="652" class="grid"/><text x="650.8620689655172" y="680" text-anchor="middle" class="tick">0.040</text><line x1="874.1379310344827" y1="112" x2="874.1379310344827" y2="652" class="grid"/><text x="874.1379310344827" y="680" text-anchor="middle" class="tick">0.060</text><line x1="1097.413793103448" y1="112" x2="1097.413793103448" y2="652" class="grid"/><text x="1097.413793103448" y="680" text-anchor="middle" class="tick">0.080</text><line x1="1320.6896551724137" y1="112" x2="1320.6896551724137" y2="652" class="grid"/><text x="1320.6896551724137" y="680" text-anchor="middle" class="tick">0.100</text><rect x="115" y="112" width="1295" height="540" class="frame"/><polyline points="204.3103448275862,149.24137931034483 315.94827586206895,193.39298622643355 483.405172413793,284.25833461253995 762.4999999999999,396.03522237262587 1320.6896551724137,614.7586206896551" fill="none" stroke="#CC79A7" stroke-width="3" class="mark"/><circle cx="204.3103448275862" cy="149.24137931034483" r="4" fill="#CC79A7" class="mark"><title>0.000：0.0428</title></circle><circle cx="315.94827586206895" cy="193.39298622643355" r="4" fill="#CC79A7" class="mark"><title>0.010：0.0427</title></circle><circle cx="483.405172413793" cy="284.25833461253995" r="4" fill="#CC79A7" class="mark"><title>0.025：0.0423</title></circle><circle cx="762.4999999999999" cy="396.03522237262587" r="4" fill="#CC79A7" class="mark"><title>0.050：0.0419</title></circle><circle cx="1320.6896551724137" cy="614.7586206896551" r="4" fill="#CC79A7" class="mark"><title>0.100：0.0410</title></circle><text x="1332.6896551724137" y="602.7586206896551" class="value">0.0410</text><text x="1410" y="714" text-anchor="end" class="axis">λ_clip</text><text x="22" y="100" class="axis">CLIP MMD²</text></g><text x="40" y="740" class="note">数据源：CLIP实验结果/C0–C4/final_metrics.json + config*.json；说明：CLIP MMD 与 FID 是不同指标，不能互相替代</text></svg>